<?xml version="1.0" encoding="utf-8"?>
<!DOCTYPE svg PUBLIC "-//W3C//DTD SVG 20010904//EN" "http://www.w3.org/TR/2001/REC-SVG-20010904/DTD/svg10.dtd">
<svg version="1.0" xmlns="http://www.w3.org/2000/svg" width="281pt" height="226pt" viewBox="0 0 281 226" preserveAspectRatio="xMidYMid meet">
<g fill="#4E9BACFE">
<path d="M 66.53 189.09 C 66.20 188.04 64.37 185.23 62.47 182.84 C 60.57 180.45 59.02 177.98 59.01 177.36 C 59.00 176.73 61.27 171.62 64.04 166.01 C 71.49 150.95 71.49 151.08 63.60 147.65 C 51.62 142.44 44.56 131.43 44.58 118.00 C 44.61 105.43 51.30 94.92 62.86 89.30 C 68.09 86.75 69.66 86.51 84.39 86.03 C 97.09 85.61 100.46 85.20 101.14 84.00 C 101.60 83.17 104.41 77.10 107.37 70.50 C 110.34 63.90 113.77 56.25 115.01 53.50 C 124.15 33.14 137.49 23.12 156.65 22.21 C 167.70 21.68 175.84 23.96 184.16 29.94 C 191.93 35.51 195.35 40.34 204.18 58.24 C 213.03 76.17 214.79 83.49 213.08 95.33 C 209.96 117.00 191.98 136.72 167.11 145.75 C 155.65 149.91 146.67 151.13 123.37 151.72 C 101.74 152.26 93.40 151.77 94.48 150.03 C 94.77 149.56 94.45 148.94 93.76 148.66 C 92.94 148.33 92.85 147.86 93.50 147.33 C 94.05 146.87 94.63 144.93 94.79 143.01 C 94.94 141.10 95.46 139.14 95.95 138.65 C 96.43 138.17 101.02 137.44 106.16 137.02 C 116.64 136.17 119.52 135.27 122.70 131.84 C 131.87 121.97 128.38 106.85 115.73 101.64 C 111.56 99.92 109.46 100.27 108.68 102.82 C 108.40 103.74 105.20 111.20 101.58 119.39 C 97.96 127.57 94.97 135.00 94.93 135.89 C 94.90 136.77 93.11 140.88 90.95 145.00 C 86.71 153.14 77.40 172.18 72.02 183.75 C 68.49 191.33 67.53 192.26 66.53 189.09ZM 163.10 131.90 C 189.38 121.77 204.66 97.42 196.97 77.93 C 193.21 68.37 183.52 49.83 180.36 46.12 C 173.76 38.38 160.83 34.35 151.03 36.99 C 145.56 38.46 138.92 42.93 135.47 47.45 C 132.83 50.91 117.99 83.10 118.02 85.30 C 118.03 85.96 120.45 87.55 123.41 88.82 C 126.42 90.13 130.91 93.30 133.64 96.06 C 136.31 98.77 138.76 100.98 139.07 100.99 C 139.38 100.99 141.59 96.61 143.98 91.25 C 151.77 73.77 153.18 72.00 159.29 72.00 C 162.37 72.00 163.81 72.66 166.10 75.11 C 167.69 76.81 169.00 78.58 169.00 79.02 C 169.00 79.47 171.93 85.93 175.50 93.39 C 179.07 100.84 181.99 107.74 181.98 108.72 C 181.96 110.60 174.77 117.16 172.50 117.37 C 171.74 117.45 168.82 112.92 165.83 107.06 C 162.90 101.32 160.01 96.47 159.40 96.28 C 158.25 95.92 154.73 102.60 148.22 117.50 C 146.06 122.45 143.48 128.15 142.50 130.16 C 139.67 135.97 140.62 136.84 148.62 135.77 C 152.37 135.27 158.88 133.53 163.10 131.90ZM 77.75 134.75 C 78.80 133.42 93.00 101.65 93.00 100.61 C 93.00 99.29 72.90 100.00 70.20 101.41 C 65.82 103.71 61.27 109.19 59.92 113.79 C 58.85 117.44 58.91 118.86 60.32 123.36 C 62.07 128.90 64.50 131.83 69.50 134.43 C 73.13 136.31 76.40 136.44 77.75 134.75Z"/></g>
<g fill="#4E9BACFE">
<path d="M 221.78 201.10 C 219.19 200.22 216.29 198.73 215.35 197.79 C 213.74 196.17 213.75 195.87 215.57 192.49 C 219.84 184.55 229.68 179.38 238.76 180.31 C 247.95 181.26 258.00 189.26 258.00 195.62 C 258.00 201.71 234.18 205.31 221.78 201.10Z"/></g>
<g fill="#4E9BACFE">
<path d="M 25.99 201.58 C 23.52 200.89 20.48 199.79 19.24 199.13 C 14.23 196.45 18.16 188.59 27.00 183.60 C 31.65 180.98 33.51 180.51 39.07 180.55 C 44.57 180.60 46.44 181.10 50.57 183.63 C 56.33 187.16 60.22 192.36 59.80 195.96 C 59.56 198.00 58.42 198.93 54.00 200.72 C 47.64 203.29 33.73 203.71 25.99 201.58Z"/></g>
<g fill="#4E9BACFE">
<path d="M 199.53 177.25 C 188.89 155.98 184.81 146.77 185.69 146.06 C 191.32 141.47 195.95 138.00 196.44 138.00 C 197.78 138.00 216.20 177.44 215.37 178.53 C 214.89 179.15 212.80 182.21 210.72 185.33 C 208.64 188.45 206.82 191.00 206.67 191.00 C 206.53 191.00 203.31 184.81 199.53 177.25Z"/></g>
<g fill="#4E9BACFE">
<path d="M 231.50 173.58 C 229.85 172.85 227.15 170.81 225.50 169.06 C 223.01 166.41 222.50 165.03 222.50 161.00 C 222.50 156.97 223.01 155.60 225.45 153.05 C 231.16 147.10 240.96 147.05 246.25 152.96 C 248.53 155.51 249.00 156.95 249.00 161.44 C 249.00 166.13 248.60 167.25 245.96 169.89 C 244.29 171.56 241.25 173.39 239.21 173.96 C 234.73 175.20 235.18 175.23 231.50 173.58Z"/></g>
<g fill="#4E9BACFE">
<path d="M 33.42 173.61 C 26.53 170.54 23.47 162.75 26.65 156.36 C 29.26 151.09 33.22 148.48 38.40 148.59 C 48.66 148.81 54.78 158.34 50.48 167.39 C 47.76 173.13 39.27 176.22 33.42 173.61Z"/></g>
<g fill="#327A89F7">
<path d="M 88.98 149.56 C 89.49 148.22 91.06 144.85 92.47 142.06 C 94.64 137.77 95.45 137.02 97.77 137.10 C 100.48 137.20 100.48 137.20 98.06 137.88 C 95.64 138.56 93.51 143.15 94.45 145.69 C 94.69 146.34 94.35 147.09 93.69 147.36 C 92.84 147.71 92.93 148.15 94.00 148.91 C 94.83 149.49 95.05 150.01 94.50 150.05 C 93.95 150.10 94.40 150.53 95.50 151.00 C 97.01 151.65 96.33 151.88 92.77 151.93 C 88.17 152.00 88.07 151.94 88.98 149.56Z"/></g>
</svg>
